<svg
        viewBox="0 0 80 75"
        xmlns="http://www.w3.org/2000/svg"
>
        <link type="text/css" rel="stylesheet" href="logo.css" />
        <defs>
                <style>
                        .head-outline {
                                fill: url(#spots);
                                stroke: #000;
                                stroke-width: 2;
                        }
                                
                        .ear-outer {
                                fill: rgba(183,150,87,1);
                                stroke: none;
                        }
                                
                        .bridge {
                                fill: url(#bridge-background);
                                stroke-linejoin: round;
                        }
                                
                        .eye-outline {
                                stroke: #000;
                                stroke-width: 2;
                                stroke-linejoin: round;
                                fill: transparent;
                        }
                                
                        .eye-white {
                                fill: #fff;
                        }

                        .iris {
                                fill: green;
                        }

                        .chin {
                                fill: url(#fade-white);
                                stroke: none;
                                filter: url(#blured);
                        }

                        .nose {
                                stroke-linejoin: round;
                                stroke-linecap: round
                        }

                        .spot {
                                fill: #000;
                        }

                        .eye-line {
                                stroke: #000;
                                fill: #000;
                        }

                        .mouth {
                                stroke: #000;
                                fill: #000;
                        }
                </style>
                <pattern id="spots" x="0" y="0" width="20" height="20" patternUnits="userSpaceOnUse">
                        <rect width="20" height="20" fill="rgb(183, 150, 87)" />
                        <circle class="spot" r="2" cx="5" cy="5" />
                        <circle class="spot" r="3" cx="8" cy="10" />
                        <circle class="spot" r="1" cx="12" cy="18" />
                        <circle class="spot" r="4" cx="15.5" cy="12" />
                        <circle class="spot" r="3" cx="3.2" cy="16.8" />
                        <circle class="spot" r="0.5" cx="15.8" cy="3" />
                        <circle class="spot" r="2.125" cx="13" cy="2.2" />
                </pattern>
                <radialGradient id="fade-white" cy="90%" cx="50%" r="1">
                        <stop stop-color="rgba(255,255,255,1)" offset="50%" />
                        <stop stop-color="rgba(255,255,255,0)" offset="100%" />
                </radialGradient>
                <radialGradient id="bridge-background" cy="0" cx="50%" r="1">
                        <stop stop-color="rgba(183,150,87,1)" offset="70%" />
                        <stop stop-color="rgba(183,150,87,0)" offset="100%" />
                </radialGradient>
                <filter id="blured">
                        <feGaussianBlur in="SourceGraphic" stdDeviation="0.5"/>
                </filter>
        </defs>
        <path
                class="head-outline"
                d="M 5 17
                a 2 2 -45 0 1 10 -10
                a 10 2 0 1 1 50 0
                a 2 2 45 0 1 10 10
                a 31 20 90 0 1 -70 0
                z"
                />
        <path
                class="ear-outer"
                d="M 5.7 16
                a 4 4 -45 0 1 9 -8.4
                z
                "
        />
        <path
                class="ear-outer"
                d="M 65.6 7.6
                a 4 4 45 0 1 8.6 8.6
                z
                "
        />
        <path
                class="ear-inner"
                d="M 6.5 15.5
                a 4 4 -45 0 1 7 -7
                z"
                fill="pink"
        />
        <path
                class="ear-inner"
                d="M 66.5 8.5
                a 4 4 45 0 1 7 7
                z"
                fill="pink"
        />
        <path
                class="bridge"
                d="M 30.5 30.5
                a 10 20 -20 0 1 -3.5 15
                a 13 20 26 0 0 -2 19
                a 32.5 29 90 0 0 30 0
                a 13 20 -26 0 0 -2.5 -19
                a 10 20 20 0 1 -3.5 -15
                a 10 24 -5 0 1 7 -26
                a 21 5 0 0 0 -33 0
                a 10 24 5 0 1 5 26
                z
                "
        />
        <path
                id="left-white"
                class="eye-white"
                d="M 15 30
                a 10 4 0 0 0 15 0
                a 4 3 90 0 0 -15 0
                z"
        />
        <path
                id="right-white"
                class="eye-white"
                d="M 50 30
                a 10 4 0 0 0 15 0
                a 4 3 90 0 0 -15 0
                z"
        />
        <circle
                class="iris"
                cx="22.5"
                cy="26.7"
                r="4"
        />
        <circle
                class="iris"
                cx="57.4"
                cy="26.7"
                r="4"
        />
        <circle
                class="pupil"
                cx="22.5"
                cy="26.7"
                r="2"
        />
        <circle
                class="pupil"
                cx="57.4"
                cy="26.7"
                r="2"
        />
        <path
                id="left-eye"
                class="eye-outline"
                d="M 15 30
                a 10 4 0 0 0 15 0
                a 4 3 90 0 0 -15 0
                z"
        />
        <path
                id="right-eye"
                class="eye-outline"
                d="M 50 30
                a 10 4 0 0 0 15 0
                a 4 3 90 0 0 -15 0
                z"
        />
        <path
                class="chin"
                d="M 14 51.1
                a 20 2 -9 0 0 19 -4.5
                a 20 10 0 0 1 14 0
                a 20 2 9 0 0 19 4.5
                a 31 28 90 0 1 -52 0
                z"
        />
        <path
                class="eye-line" 
                d="M 30.5 30.5
                a 10 20 -20 0 1 -3.5 15
                a 13 20 26 0 0 -2.5 20.5
                a 13 20 26 0 1 4 -20.5
                a 10 20 -20 0 0 3 -16
                l -1 -1"
                stroke-linejoin="miter"
                
        />
        <path 
                class="eye-line"
                d="M 49.5 30.5 
                        a 10 20 20 0 0 3.5 15
                        a 13 20 -26 0 1 2.5 20.5
                        a 13 20 -26 0 0 -4 -20.5
                        a 10 20 20 0 1 -3 -16
                        l 1 -1
                        "
                stroke-linejoin="miter"
        />
        <path
                class="nose"
                d="M 32 45
                a 20 10 0 0 1 15 0
                a 10 20 0 0 1 -15 0"
        />
        <path
                class="mouth"
                d="M 39.5 51.5
                l 0 10
                a 10 2 -8 0 0 16.2 -3
                a 10 2 -11 0 1 -12 4
                a 4 2 0 0 1 -8 0
                a 10 2 11 0 1 -12 -4
                a 10 2 8 0 0 16 3
                "
                fill="transparent"
                stroke="#000"
        />
</svg>